<svg xmlns="http://www.w3.org/2000/svg" viewBox="0 0 566 487"><defs><style>.cls-1{fill:red;}.cls-2,.cls-4{fill:#fff;}.cls-3,.cls-4,.cls-5{stroke:#000;stroke-miterlimit:10;stroke-width:6px;}.cls-5{fill:blue;}</style></defs><g id="Camada_2" data-name="Camada 2"><g id="Camada_1-2" data-name="Camada 1"><rect class="cls-1" x="7.5" y="54.5" width="551" height="121" rx="35.98"/><path d="M522.52,62A28.52,28.52,0,0,1,551,90.48v49A28.52,28.52,0,0,1,522.52,168h-479A28.52,28.52,0,0,1,15,139.52v-49A28.52,28.52,0,0,1,43.48,62h479m0-15h-479A43.48,43.48,0,0,0,0,90.48v49A43.48,43.48,0,0,0,43.48,183h479A43.48,43.48,0,0,0,566,139.52v-49A43.48,43.48,0,0,0,522.52,47Z"/><rect class="cls-2" x="7.5" y="146.5" width="551" height="333"/><path d="M551,154V472H15V154H551m15-15H0V487H566V139Z"/><rect x="67" y="3" width="30" height="93"/><path d="M94,6V93H70V6H94m6-6H64V99h36V0Z"/><rect x="468" y="3" width="30" height="93"/><path d="M495,6V93H471V6h24m6-6H465V99h36V0Z"/><rect class="cls-3" x="32" y="173" width="502" height="281"/><rect class="cls-4" x="44" y="184" width="92.85" height="84.24"/><rect class="cls-4" x="44.28" y="271.68" width="92.85" height="84.24"/><rect class="cls-4" x="44.28" y="359.55" width="92.85" height="84.24"/><rect class="cls-4" x="140.83" y="183.97" width="92.85" height="84.24"/><rect class="cls-4" x="141.1" y="271.65" width="92.85" height="84.24"/><rect class="cls-4" x="141.1" y="359.52" width="92.85" height="84.24"/><rect class="cls-4" x="236.04" y="183.8" width="92.85" height="84.24"/><rect class="cls-5" x="236.31" y="271.48" width="92.85" height="84.24"/><rect class="cls-4" x="236.31" y="359.34" width="92.85" height="84.24"/><rect class="cls-4" x="332.87" y="183.77" width="92.85" height="84.24"/><rect class="cls-4" x="333.14" y="271.45" width="92.85" height="84.24"/><rect class="cls-4" x="333.14" y="359.31" width="92.85" height="84.24"/><rect class="cls-4" x="428.87" y="184.2" width="92.85" height="84.24"/><rect class="cls-4" x="429.15" y="271.88" width="92.85" height="84.24"/><rect class="cls-4" x="429.15" y="359.75" width="92.85" height="84.24"/></g></g></svg>