<svg xmlns="http://www.w3.org/2000/svg" viewBox="0 0 661.38 564.6"><defs><style>.cls-1{fill:red;}.cls-2,.cls-3{fill:#fff;}.cls-3{stroke:#000;stroke-miterlimit:10;stroke-width:6px;}.cls-4{fill:lime;}</style></defs><g id="Camada_2" data-name="Camada 2"><g id="Camada_1-2" data-name="Camada 1"><rect class="cls-1" x="7.5" y="54.5" width="551" height="121" rx="35.98"/><path d="M522.52,62A28.52,28.52,0,0,1,551,90.48v49A28.52,28.52,0,0,1,522.52,168h-479A28.52,28.52,0,0,1,15,139.52v-49A28.52,28.52,0,0,1,43.48,62h479m0-15h-479A43.48,43.48,0,0,0,0,90.48v49A43.48,43.48,0,0,0,43.48,183h479A43.48,43.48,0,0,0,566,139.52v-49A43.48,43.48,0,0,0,522.52,47Z"/><rect class="cls-2" x="7.5" y="146.5" width="551" height="333"/><path d="M551,154V472H15V154H551m15-15H0V487H566V139Z"/><rect x="67" y="3" width="30" height="93"/><path d="M94,6V93H70V6H94m6-6H64V99h36V0Z"/><rect x="468" y="3" width="30" height="93"/><path d="M495,6V93H471V6h24m6-6H465V99h36V0Z"/><rect class="cls-3" x="32" y="173" width="502" height="281"/><path class="cls-4" d="M146,282c.3-.06.6-.11.91-.15l-3.19.43a22,22,0,0,1,5.44,0l-3.19-.43a25.58,25.58,0,0,1,6.14,1.65l-2.87-1.21a30.8,30.8,0,0,1,6.41,3.72l-2.42-1.88a33.85,33.85,0,0,1,6,5.94l-1.88-2.43a42,42,0,0,1,5,8.73l-1.21-2.86c3,7.07,4.32,14.64,5.34,22.2l-.43-3.19a272.58,272.58,0,0,1,0,71.28l.43-3.19q-.78,5.81-1.81,11.58a14.46,14.46,0,0,0,0,6.38,12.18,12.18,0,0,0,17.63,7.17q26.42-15.53,52.7-31.23t52.46-31.61q26.31-16,52.49-32.16t52-32.39q25.94-16.29,51.74-32.78l6.49-4.14a12.63,12.63,0,0,0,5.51-7.17A12.3,12.3,0,0,0,454.4,225c-3.4-5.28-10.76-7.92-16.42-4.3q-25.8,16.5-51.71,32.82t-52,32.44q-26.18,16.2-52.46,32.21t-52.43,31.66q-26.28,15.74-52.67,31.27L170.12,385l17.63,13.55a285.09,285.09,0,0,0,4.18-65.34,235.32,235.32,0,0,0-3.83-33c-2.09-10.58-6.2-20.85-13.46-29A41.13,41.13,0,0,0,159.9,261a34.36,34.36,0,0,0-9.16-2.48,34.77,34.77,0,0,0-11.14.4c-2.81.5-5.79,3.15-7.17,5.51a12,12,0,0,0,4.3,16.42A13.57,13.57,0,0,0,146,282Z"/><path class="cls-2" d="M560.39,298.39c-7.63,6.23-18.9,5.7-28.11,2.19s-17.24-9.51-26.15-13.71c-18-8.46-41.45-8.3-55.74,5.5-10,9.68-13.84,24-16.46,37.68-12.74,66.58-6.37,138.29,26.82,197.39,6.85,12.2,18.28,25.36,32,22.5s18.89-19.58,21.57-33.44,8.34-30.54,22.28-32.72c13-2,23.76,10.84,27.67,23.45s4.25,26.59,11.27,37.78c2.11,3.36,5,6.53,8.91,7.43,8,1.86,14.41-6.26,18.4-13.39,34.12-61,55.9-132.23,42.58-200.82-3.56-18.32-10.52-37.47-26-48-18.6-12.66-47-7.38-59.83,11.12"/><path d="M551.91,289.91l-.32.25,2.43-1.88a20.62,20.62,0,0,1-4.44,2.61l2.87-1.21a25.24,25.24,0,0,1-6.11,1.66l3.19-.43a33.29,33.29,0,0,1-8.52-.07l3.19.43a43.43,43.43,0,0,1-10.47-3l2.87,1.21c-7.43-3.15-14.13-7.71-21.26-11.44a73.27,73.27,0,0,0-22-7.74,76.78,76.78,0,0,0-12.93-1.2,70.05,70.05,0,0,0-12.59,1.33,58,58,0,0,0-11.93,4,39.94,39.94,0,0,0-8.32,4.83,49.79,49.79,0,0,0-9.52,9,60.41,60.41,0,0,0-7.15,11.15,103.5,103.5,0,0,0-7.67,23.3,349.85,349.85,0,0,0-6.65,49.19,321.71,321.71,0,0,0,.28,47,309.5,309.5,0,0,0,7.77,48.89,272.87,272.87,0,0,0,16.11,46.49,212.89,212.89,0,0,0,10.46,20.6,91.57,91.57,0,0,0,7.57,10.78,46.81,46.81,0,0,0,7.11,7.31,44.71,44.71,0,0,0,13,7.67,27,27,0,0,0,6,1.34,25.65,25.65,0,0,0,6,.28,32.21,32.21,0,0,0,13.74-4.2,31.58,31.58,0,0,0,8.29-7.12,46.3,46.3,0,0,0,6.27-9.71,82.85,82.85,0,0,0,4.25-11.11c1.76-5.92,2.6-12.05,4.23-18a69.31,69.31,0,0,1,2.92-8.54l-1.21,2.86a40,40,0,0,1,5-8.68l-1.88,2.43a25.61,25.61,0,0,1,4.11-4.15l-2.43,1.88a19.83,19.83,0,0,1,4.4-2.58l-2.87,1.21a19.68,19.68,0,0,1,4.53-1.21l-3.19.43a18.88,18.88,0,0,1,4.75,0l-3.19-.43a20.47,20.47,0,0,1,4.81,1.35l-2.86-1.21a25.18,25.18,0,0,1,5,3l-2.43-1.88a33.51,33.51,0,0,1,5.91,6l-1.87-2.43a43.93,43.93,0,0,1,5.33,9.2l-1.21-2.87c2.74,6.55,3.86,13.66,5.31,20.57,1.63,7.79,3.78,15.56,7.72,22.54a34,34,0,0,0,10.45,11.6c5,3.39,11.06,4.06,16.83,3,4.62-.84,8.76-3.64,12.22-6.67a44.87,44.87,0,0,0,7.65-9.38c4-6.21,7.31-13,10.64-19.6q5.13-10.12,9.7-20.5a392.75,392.75,0,0,0,16.94-45.38c8.87-29.68,13.79-61,12.49-92-.35-8.36-1.23-16.67-2.41-25a169,169,0,0,0-4.17-20.92c-3.84-14-10.24-28.15-20.93-38.33a54.27,54.27,0,0,0-39-15,58.29,58.29,0,0,0-38.31,15.46,54.51,54.51,0,0,0-7.11,8.5c-1.7,2.43-2,6.49-1.21,9.25a12.27,12.27,0,0,0,5.51,7.17,12.13,12.13,0,0,0,9.25,1.21,13.5,13.5,0,0,0,7.17-5.51c.41-.58.82-1.14,1.25-1.7l-1.88,2.43a41,41,0,0,1,6.89-6.86l-2.43,1.87a45.23,45.23,0,0,1,9.9-5.78l-2.86,1.21A48.66,48.66,0,0,1,593,295.31l-3.19.43a47.9,47.9,0,0,1,12.2,0l-3.19-.43a43.7,43.7,0,0,1,10.72,2.88L606.65,297a41.11,41.11,0,0,1,9,5.31l-2.43-1.88a49.87,49.87,0,0,1,8.59,8.71L620,306.67a67.69,67.69,0,0,1,8.49,14.94l-1.2-2.87c4.59,11,7,22.87,8.57,34.67l-.43-3.19a232.85,232.85,0,0,1,1.22,49.37q-.57,7.07-1.52,14.11l.43-3.19a313.08,313.08,0,0,1-16.28,64.76q-3.27,9-7,17.83l1.21-2.86q-5.48,12.94-11.81,25.52-3.14,6.19-6.45,12.3a81.41,81.41,0,0,1-6.58,10.85l1.88-2.43a28.59,28.59,0,0,1-4.58,4.75l2.43-1.88a16.62,16.62,0,0,1-3.4,2.07l2.87-1.21a12,12,0,0,1-3,.85l3.19-.43a11.33,11.33,0,0,1-2.47,0l3.19.43a11.68,11.68,0,0,1-2.64-.69l2.87,1.21a13.2,13.2,0,0,1-2.78-1.64l2.43,1.88a19.18,19.18,0,0,1-3.17-3.26L587.3,541a37.28,37.28,0,0,1-4.45-7.91l1.21,2.86c-4-9.72-4.91-20.34-7.79-30.4-3.29-11.47-9.91-22-19.87-28.72-9.78-6.64-23.84-7.16-33.66-.24a40,40,0,0,0-11.54,12.53,65.74,65.74,0,0,0-6,14.16c-2.78,9-3.67,18.46-7.34,27.23l1.21-2.87a39.31,39.31,0,0,1-4.73,8.35l1.88-2.43a24.88,24.88,0,0,1-4.32,4.38l2.43-1.88a20.78,20.78,0,0,1-4.15,2.43l2.87-1.21a20.26,20.26,0,0,1-5,1.35l3.19-.43a20,20,0,0,1-4.77,0l3.19.43a21.64,21.64,0,0,1-5.23-1.46l2.87,1.21a29.6,29.6,0,0,1-6.13-3.64l2.43,1.87a48.45,48.45,0,0,1-8.38-8.55l1.88,2.43A103,103,0,0,1,467.65,515q-4.51-8.64-8.3-17.63l1.21,2.87a264.35,264.35,0,0,1-15.88-52.8q-1.5-7.8-2.56-15.69l.43,3.19A317.24,317.24,0,0,1,440.82,368q.75-9.56,2-19.07l-.43,3.19c1-7.16,2.14-14.3,3.57-21.38a103.57,103.57,0,0,1,5.68-19.61L450.46,314a52.27,52.27,0,0,1,6.4-11.21L455,305.23a39.82,39.82,0,0,1,7.09-7.12L459.65,300a40.06,40.06,0,0,1,8.49-4.9l-2.87,1.21A46.34,46.34,0,0,1,477,293.16l-3.19.42a56.9,56.9,0,0,1,14.75.1l-3.19-.43a62.36,62.36,0,0,1,15.45,4.24L498,296.28c8.07,3.45,15.26,8.59,23.13,12.42a61,61,0,0,0,14.3,5.29,46.37,46.37,0,0,0,15.75.7,29.88,29.88,0,0,0,7.52-1.79,40.18,40.18,0,0,0,5.34-2.44,42.86,42.86,0,0,0,4.89-3.58c2.25-1.79,3.51-5.75,3.51-8.49a12,12,0,0,0-12-12l-3.19.43a12,12,0,0,0-5.29,3.09Z"/><path class="cls-2" d="M585.09,377.24c6,9.52,7.59,21.28,6.53,32.47s-4.6,22-8.28,32.6"/><path d="M574.73,383.3a41.89,41.89,0,0,1,3.08,5.95l-1.21-2.86a50,50,0,0,1,3.23,12.15l-.43-3.19a66.39,66.39,0,0,1-.1,17.19l.43-3.19c-1.37,10.22-4.6,20-8,29.77-1,2.83-.26,6.73,1.21,9.25a12,12,0,0,0,16.42,4.3,13.25,13.25,0,0,0,5.51-7.17c6.53-18.86,11.92-38.79,7-58.72a54.32,54.32,0,0,0-6.49-15.59,12.55,12.55,0,0,0-7.18-5.52,12.27,12.27,0,0,0-9.24,1.21,12.13,12.13,0,0,0-5.52,7.17,12.34,12.34,0,0,0,1.21,9.25Z"/></g></g></svg>