<svg xmlns="http://www.w3.org/2000/svg" viewBox="0 0 566 487"><defs><style>.cls-1{fill:red;}.cls-2,.cls-3{fill:#fff;}.cls-3,.cls-4{stroke:#000;}.cls-3,.cls-4,.cls-5{stroke-miterlimit:10;}.cls-3{stroke-width:6px;}.cls-4,.cls-5{stroke-width:8px;}.cls-5,.cls-6{fill:blue;}.cls-5{stroke:blue;}</style></defs><g id="Camada_2" data-name="Camada 2"><g id="Camada_1-2" data-name="Camada 1"><rect class="cls-1" x="7.5" y="54.5" width="551" height="121" rx="35.98"/><path d="M522.52,62A28.52,28.52,0,0,1,551,90.48v49A28.52,28.52,0,0,1,522.52,168h-479A28.52,28.52,0,0,1,15,139.52v-49A28.52,28.52,0,0,1,43.48,62h479m0-15h-479A43.48,43.48,0,0,0,0,90.48v49A43.48,43.48,0,0,0,43.48,183h479A43.48,43.48,0,0,0,566,139.52v-49A43.48,43.48,0,0,0,522.52,47Z"/><rect class="cls-2" x="7.5" y="146.5" width="551" height="333"/><path d="M551,154V472H15V154H551m15-15H0V487H566V139Z"/><rect x="67" y="3" width="30" height="93"/><path d="M94,6V93H70V6H94m6-6H64V99h36V0Z"/><rect x="468" y="3" width="30" height="93"/><path d="M495,6V93H471V6h24m6-6H465V99h36V0Z"/><rect class="cls-3" x="32" y="173" width="502" height="281"/><path class="cls-4" d="M279.5,449.6,200,454q0-2.19,0-4.38C200,367.55,235.89,300,279.5,300S359,367.55,359,449.6Z"/><ellipse class="cls-4" cx="279.91" cy="279.03" rx="54.37" ry="58.03"/><ellipse class="cls-5" cx="217" cy="269.5" rx="17" ry="26"/><ellipse class="cls-5" cx="337" cy="269.5" rx="17" ry="26"/><path class="cls-6" d="M238.43,255a55.69,55.69,0,0,1,5.28-8.21l-1.88,2.43a58.57,58.57,0,0,1,10.09-10.06l-2.43,1.87a59,59,0,0,1,12.94-7.59l-2.87,1.21a56.13,56.13,0,0,1,13.8-3.82l-3.19.43a56.64,56.64,0,0,1,15,0l-3.19-.43a59.35,59.35,0,0,1,14.86,4.08L294,233.73a57.73,57.73,0,0,1,12.61,7.37l-2.43-1.87c5.47,4.28,9.86,9.61,14.18,15,1.8,2.25,5.74,3.52,8.49,3.52a12.19,12.19,0,0,0,8.48-3.52,12.06,12.06,0,0,0,3.52-8.48l-.43-3.19a12,12,0,0,0-3.09-5.3,125.25,125.25,0,0,0-9.12-10.54,70,70,0,0,0-11.52-9.2,72.48,72.48,0,0,0-13.28-6.47,58.22,58.22,0,0,0-11.45-3.1,69.87,69.87,0,0,0-29.11,1A65.73,65.73,0,0,0,238,219.87a71,71,0,0,0-11.33,10.22,69.27,69.27,0,0,0-9,12.81,12.69,12.69,0,0,0-1.21,9.25,12.25,12.25,0,0,0,5.52,7.17,12,12,0,0,0,16.42-4.3Z"/></g></g></svg>