<svg xmlns="http://www.w3.org/2000/svg" viewBox="0 0 566 487"><defs><style>.cls-1{fill:red;}.cls-2,.cls-3{fill:#fff;}.cls-3,.cls-4{stroke:#000;stroke-miterlimit:10;}.cls-3{stroke-width:6px;}.cls-4{stroke-width:8px;}</style></defs><g id="Camada_2" data-name="Camada 2"><g id="Camada_1-2" data-name="Camada 1"><rect class="cls-1" x="7.5" y="54.5" width="551" height="121" rx="35.98"/><path d="M522.52,62A28.52,28.52,0,0,1,551,90.48v49A28.52,28.52,0,0,1,522.52,168h-479A28.52,28.52,0,0,1,15,139.52v-49A28.52,28.52,0,0,1,43.48,62h479m0-15h-479A43.48,43.48,0,0,0,0,90.48v49A43.48,43.48,0,0,0,43.48,183h479A43.48,43.48,0,0,0,566,139.52v-49A43.48,43.48,0,0,0,522.52,47Z"/><rect class="cls-2" x="7.5" y="146.5" width="551" height="333"/><path d="M551,154V472H15V154H551m15-15H0V487H566V139Z"/><rect x="67" y="3" width="30" height="93"/><path d="M94,6V93H70V6H94m6-6H64V99h36V0Z"/><rect x="468" y="3" width="30" height="93"/><path d="M495,6V93H471V6h24m6-6H465V99h36V0Z"/><rect class="cls-3" x="32" y="173" width="502" height="281"/><path class="cls-4" d="M279.5,449.6,200,454q0-2.19,0-4.38C200,367.55,235.89,300,279.5,300S359,367.55,359,449.6Z"/><ellipse class="cls-4" cx="279.91" cy="279.03" rx="54.37" ry="58.03"/></g></g></svg>